<mxfile host="app.diagrams.net" modified="2020-12-25T09:35:03.569Z" agent="5.0 (Windows NT 10.0; Win64; x64) AppleWebKit/537.36 (KHTML, like Gecko) Chrome/84.0.4147.105 Safari/537.36" etag="vAjIElZw1tvsA5sUKNaK" version="13.10.2" type="github">
  <diagram id="xaqxg2Farh_HcrDXdNea" name="Page-1">
    <mxGraphModel dx="2105" dy="548" grid="1" gridSize="10" guides="1" tooltips="1" connect="1" arrows="1" fold="1" page="1" pageScale="1" pageWidth="827" pageHeight="1169" math="0" shadow="0">
      <root>
        <mxCell id="0" />
        <mxCell id="1" parent="0" />
        <mxCell id="Re3U-acYbqD1VZvPbJbH-1" value="阿里云DTS" style="shape=cylinder3;whiteSpace=wrap;html=1;boundedLbl=1;backgroundOutline=1;size=15;" parent="1" vertex="1">
          <mxGeometry x="335" y="30" width="170" height="130" as="geometry" />
        </mxCell>
        <mxCell id="Re3U-acYbqD1VZvPbJbH-3" style="edgeStyle=orthogonalEdgeStyle;rounded=0;orthogonalLoop=1;jettySize=auto;html=1;entryX=0.5;entryY=1;entryDx=0;entryDy=0;entryPerimeter=0;" parent="1" source="Re3U-acYbqD1VZvPbJbH-2" target="Re3U-acYbqD1VZvPbJbH-1" edge="1">
          <mxGeometry relative="1" as="geometry" />
        </mxCell>
        <mxCell id="Re3U-acYbqD1VZvPbJbH-5" style="edgeStyle=orthogonalEdgeStyle;rounded=0;orthogonalLoop=1;jettySize=auto;html=1;exitX=0.5;exitY=1;exitDx=0;exitDy=0;entryX=0.5;entryY=0;entryDx=0;entryDy=0;" parent="1" source="Re3U-acYbqD1VZvPbJbH-2" target="Re3U-acYbqD1VZvPbJbH-4" edge="1">
          <mxGeometry relative="1" as="geometry" />
        </mxCell>
        <mxCell id="dDAZ2-Sq7wZqyejduBsv-41" style="edgeStyle=orthogonalEdgeStyle;rounded=0;orthogonalLoop=1;jettySize=auto;html=1;entryX=0;entryY=0.5;entryDx=0;entryDy=0;entryPerimeter=0;" edge="1" parent="1" source="Re3U-acYbqD1VZvPbJbH-2" target="dDAZ2-Sq7wZqyejduBsv-40">
          <mxGeometry relative="1" as="geometry" />
        </mxCell>
        <mxCell id="Re3U-acYbqD1VZvPbJbH-2" value="拉取dts的kafka数据" style="rounded=1;whiteSpace=wrap;html=1;" parent="1" vertex="1">
          <mxGeometry x="320" y="200" width="200" height="60" as="geometry" />
        </mxCell>
        <object label="" id="Re3U-acYbqD1VZvPbJbH-8">
          <mxCell style="edgeStyle=orthogonalEdgeStyle;rounded=0;orthogonalLoop=1;jettySize=auto;html=1;exitX=0.5;exitY=1;exitDx=0;exitDy=0;entryX=0.5;entryY=0;entryDx=0;entryDy=0;entryPerimeter=0;" parent="1" source="Re3U-acYbqD1VZvPbJbH-4" target="Re3U-acYbqD1VZvPbJbH-7" edge="1">
            <mxGeometry relative="1" as="geometry" />
          </mxCell>
        </object>
        <mxCell id="Re3U-acYbqD1VZvPbJbH-4" value="反序列化，获取消息所属数据库" style="rounded=0;whiteSpace=wrap;html=1;" parent="1" vertex="1">
          <mxGeometry x="320" y="320" width="200" height="60" as="geometry" />
        </mxCell>
        <mxCell id="Re3U-acYbqD1VZvPbJbH-7" value="" style="shape=cylinder3;whiteSpace=wrap;html=1;boundedLbl=1;backgroundOutline=1;size=15;" parent="1" vertex="1">
          <mxGeometry x="260" y="440" width="320" height="170" as="geometry" />
        </mxCell>
        <mxCell id="Re3U-acYbqD1VZvPbJbH-12" value="新疆Topic" style="ellipse;whiteSpace=wrap;html=1;aspect=fixed;" parent="1" vertex="1">
          <mxGeometry x="280" y="490" width="80" height="80" as="geometry" />
        </mxCell>
        <mxCell id="Re3U-acYbqD1VZvPbJbH-13" value="天津Topic" style="ellipse;whiteSpace=wrap;html=1;aspect=fixed;" parent="1" vertex="1">
          <mxGeometry x="480" y="490" width="80" height="80" as="geometry" />
        </mxCell>
        <mxCell id="Re3U-acYbqD1VZvPbJbH-14" value="&lt;b&gt;&lt;font style=&quot;font-size: 14px&quot;&gt;本地kafka&lt;/font&gt;&lt;/b&gt;" style="text;html=1;strokeColor=none;fillColor=none;align=center;verticalAlign=middle;whiteSpace=wrap;rounded=0;" parent="1" vertex="1">
          <mxGeometry x="590" y="510" width="80" height="25" as="geometry" />
        </mxCell>
        <mxCell id="Re3U-acYbqD1VZvPbJbH-17" style="edgeStyle=orthogonalEdgeStyle;rounded=0;orthogonalLoop=1;jettySize=auto;html=1;exitX=0.5;exitY=0;exitDx=0;exitDy=0;entryX=0.5;entryY=1;entryDx=0;entryDy=0;entryPerimeter=0;" parent="1" source="Re3U-acYbqD1VZvPbJbH-16" target="Re3U-acYbqD1VZvPbJbH-7" edge="1">
          <mxGeometry relative="1" as="geometry" />
        </mxCell>
        <mxCell id="Re3U-acYbqD1VZvPbJbH-19" value="" style="edgeStyle=orthogonalEdgeStyle;rounded=0;orthogonalLoop=1;jettySize=auto;html=1;" parent="1" source="Re3U-acYbqD1VZvPbJbH-16" target="Re3U-acYbqD1VZvPbJbH-18" edge="1">
          <mxGeometry relative="1" as="geometry" />
        </mxCell>
        <mxCell id="Re3U-acYbqD1VZvPbJbH-16" value="订阅新疆Topic" style="rounded=0;whiteSpace=wrap;html=1;" parent="1" vertex="1">
          <mxGeometry x="320" y="720" width="200" height="60" as="geometry" />
        </mxCell>
        <mxCell id="Re3U-acYbqD1VZvPbJbH-21" value="" style="edgeStyle=orthogonalEdgeStyle;rounded=0;orthogonalLoop=1;jettySize=auto;html=1;" parent="1" source="Re3U-acYbqD1VZvPbJbH-18" target="Re3U-acYbqD1VZvPbJbH-20" edge="1">
          <mxGeometry relative="1" as="geometry" />
        </mxCell>
        <mxCell id="Re3U-acYbqD1VZvPbJbH-18" value="反序列化" style="rounded=0;whiteSpace=wrap;html=1;" parent="1" vertex="1">
          <mxGeometry x="320" y="840" width="200" height="60" as="geometry" />
        </mxCell>
        <mxCell id="Re3U-acYbqD1VZvPbJbH-24" value="" style="edgeStyle=orthogonalEdgeStyle;rounded=0;orthogonalLoop=1;jettySize=auto;html=1;" parent="1" source="Re3U-acYbqD1VZvPbJbH-20" target="Re3U-acYbqD1VZvPbJbH-22" edge="1">
          <mxGeometry relative="1" as="geometry" />
        </mxCell>
        <mxCell id="dDAZ2-Sq7wZqyejduBsv-24" style="edgeStyle=orthogonalEdgeStyle;rounded=0;orthogonalLoop=1;jettySize=auto;html=1;" edge="1" parent="1" source="Re3U-acYbqD1VZvPbJbH-20">
          <mxGeometry relative="1" as="geometry">
            <mxPoint x="721" y="1077" as="targetPoint" />
          </mxGeometry>
        </mxCell>
        <mxCell id="Re3U-acYbqD1VZvPbJbH-20" value="拼装sql（跳过不需要订阅的表）" style="rounded=0;whiteSpace=wrap;html=1;" parent="1" vertex="1">
          <mxGeometry x="320" y="960" width="200" height="60" as="geometry" />
        </mxCell>
        <mxCell id="Re3U-acYbqD1VZvPbJbH-25" style="edgeStyle=orthogonalEdgeStyle;rounded=0;orthogonalLoop=1;jettySize=auto;html=1;exitX=1;exitY=0.5;exitDx=0;exitDy=0;" parent="1" source="Re3U-acYbqD1VZvPbJbH-22" edge="1">
          <mxGeometry relative="1" as="geometry">
            <mxPoint x="650" y="1110" as="targetPoint" />
          </mxGeometry>
        </mxCell>
        <mxCell id="dDAZ2-Sq7wZqyejduBsv-25" style="edgeStyle=orthogonalEdgeStyle;rounded=0;orthogonalLoop=1;jettySize=auto;html=1;" edge="1" parent="1" source="Re3U-acYbqD1VZvPbJbH-22">
          <mxGeometry relative="1" as="geometry">
            <mxPoint x="420" y="1210" as="targetPoint" />
          </mxGeometry>
        </mxCell>
        <mxCell id="Re3U-acYbqD1VZvPbJbH-22" value="根据表名获取所属队列名" style="rounded=0;whiteSpace=wrap;html=1;" parent="1" vertex="1">
          <mxGeometry x="320" y="1080" width="200" height="60" as="geometry" />
        </mxCell>
        <mxCell id="Re3U-acYbqD1VZvPbJbH-23" value="睡100毫秒" style="rounded=0;whiteSpace=wrap;html=1;" parent="1" vertex="1">
          <mxGeometry x="700" y="1395" width="200" height="60" as="geometry" />
        </mxCell>
        <mxCell id="Re3U-acYbqD1VZvPbJbH-27" value="表名--队列名数据&lt;br&gt;不需要订阅的表数据&lt;br&gt;执行失败的数据" style="shape=cylinder3;whiteSpace=wrap;html=1;boundedLbl=1;backgroundOutline=1;size=15;" parent="1" vertex="1">
          <mxGeometry x="995" y="740" width="190" height="80" as="geometry" />
        </mxCell>
        <mxCell id="Re3U-acYbqD1VZvPbJbH-29" value="" style="edgeStyle=orthogonalEdgeStyle;rounded=0;orthogonalLoop=1;jettySize=auto;html=1;" parent="1" source="Re3U-acYbqD1VZvPbJbH-28" target="Re3U-acYbqD1VZvPbJbH-27" edge="1">
          <mxGeometry relative="1" as="geometry" />
        </mxCell>
        <mxCell id="Re3U-acYbqD1VZvPbJbH-30" value="" style="edgeStyle=orthogonalEdgeStyle;rounded=0;orthogonalLoop=1;jettySize=auto;html=1;" parent="1" source="Re3U-acYbqD1VZvPbJbH-28" edge="1">
          <mxGeometry relative="1" as="geometry">
            <mxPoint x="850" y="1110" as="targetPoint" />
          </mxGeometry>
        </mxCell>
        <mxCell id="Re3U-acYbqD1VZvPbJbH-28" value="定时任务去数据库查询，然后更新Map" style="rounded=0;whiteSpace=wrap;html=1;" parent="1" vertex="1">
          <mxGeometry x="990" y="1080" width="200" height="60" as="geometry" />
        </mxCell>
        <mxCell id="Re3U-acYbqD1VZvPbJbH-31" value="Redis" style="shape=cylinder3;whiteSpace=wrap;html=1;boundedLbl=1;backgroundOutline=1;size=15;" parent="1" vertex="1">
          <mxGeometry x="320" y="1550" width="200" height="90" as="geometry" />
        </mxCell>
        <mxCell id="Re3U-acYbqD1VZvPbJbH-35" style="edgeStyle=orthogonalEdgeStyle;rounded=0;orthogonalLoop=1;jettySize=auto;html=1;exitX=0.5;exitY=1;exitDx=0;exitDy=0;entryX=0.5;entryY=0;entryDx=0;entryDy=0;entryPerimeter=0;" parent="1" source="Re3U-acYbqD1VZvPbJbH-33" target="Re3U-acYbqD1VZvPbJbH-31" edge="1">
          <mxGeometry relative="1" as="geometry" />
        </mxCell>
        <mxCell id="Re3U-acYbqD1VZvPbJbH-61" style="edgeStyle=orthogonalEdgeStyle;rounded=0;orthogonalLoop=1;jettySize=auto;html=1;exitX=1;exitY=0.5;exitDx=0;exitDy=0;entryX=0;entryY=0.5;entryDx=0;entryDy=0;" parent="1" source="Re3U-acYbqD1VZvPbJbH-33" target="Re3U-acYbqD1VZvPbJbH-23" edge="1">
          <mxGeometry relative="1" as="geometry" />
        </mxCell>
        <mxCell id="Re3U-acYbqD1VZvPbJbH-33" value="true/false" style="rhombus;whiteSpace=wrap;html=1;" parent="1" vertex="1">
          <mxGeometry x="340" y="1380" width="160" height="90" as="geometry" />
        </mxCell>
        <mxCell id="Re3U-acYbqD1VZvPbJbH-45" value="" style="edgeStyle=orthogonalEdgeStyle;rounded=0;orthogonalLoop=1;jettySize=auto;html=1;" parent="1" source="Re3U-acYbqD1VZvPbJbH-37" target="Re3U-acYbqD1VZvPbJbH-39" edge="1">
          <mxGeometry relative="1" as="geometry" />
        </mxCell>
        <mxCell id="Re3U-acYbqD1VZvPbJbH-37" value="定时任务查询RedisListTotal" style="rounded=0;whiteSpace=wrap;html=1;" parent="1" vertex="1">
          <mxGeometry y="720" width="200" height="60" as="geometry" />
        </mxCell>
        <mxCell id="Re3U-acYbqD1VZvPbJbH-58" style="edgeStyle=orthogonalEdgeStyle;rounded=0;orthogonalLoop=1;jettySize=auto;html=1;" parent="1" source="Re3U-acYbqD1VZvPbJbH-38" target="Re3U-acYbqD1VZvPbJbH-53" edge="1">
          <mxGeometry relative="1" as="geometry" />
        </mxCell>
        <mxCell id="Re3U-acYbqD1VZvPbJbH-63" style="edgeStyle=orthogonalEdgeStyle;rounded=0;orthogonalLoop=1;jettySize=auto;html=1;entryX=0.5;entryY=0;entryDx=0;entryDy=0;" parent="1" source="Re3U-acYbqD1VZvPbJbH-38" target="Re3U-acYbqD1VZvPbJbH-33" edge="1">
          <mxGeometry relative="1" as="geometry" />
        </mxCell>
        <mxCell id="Re3U-acYbqD1VZvPbJbH-38" value="获取RedisSwitch" style="rounded=0;whiteSpace=wrap;html=1;" parent="1" vertex="1">
          <mxGeometry x="320" y="1215" width="200" height="60" as="geometry" />
        </mxCell>
        <mxCell id="Re3U-acYbqD1VZvPbJbH-46" value="" style="edgeStyle=orthogonalEdgeStyle;rounded=0;orthogonalLoop=1;jettySize=auto;html=1;" parent="1" source="Re3U-acYbqD1VZvPbJbH-39" target="Re3U-acYbqD1VZvPbJbH-41" edge="1">
          <mxGeometry relative="1" as="geometry" />
        </mxCell>
        <mxCell id="Re3U-acYbqD1VZvPbJbH-51" value="" style="edgeStyle=orthogonalEdgeStyle;rounded=0;orthogonalLoop=1;jettySize=auto;html=1;" parent="1" source="Re3U-acYbqD1VZvPbJbH-39" target="Re3U-acYbqD1VZvPbJbH-50" edge="1">
          <mxGeometry relative="1" as="geometry" />
        </mxCell>
        <mxCell id="Re3U-acYbqD1VZvPbJbH-39" value="大于4000" style="rhombus;whiteSpace=wrap;html=1;" parent="1" vertex="1">
          <mxGeometry x="60" y="820" width="80" height="80" as="geometry" />
        </mxCell>
        <mxCell id="Re3U-acYbqD1VZvPbJbH-59" style="edgeStyle=orthogonalEdgeStyle;rounded=0;orthogonalLoop=1;jettySize=auto;html=1;" parent="1" source="Re3U-acYbqD1VZvPbJbH-41" edge="1">
          <mxGeometry relative="1" as="geometry">
            <mxPoint x="20" y="1200" as="targetPoint" />
          </mxGeometry>
        </mxCell>
        <mxCell id="Re3U-acYbqD1VZvPbJbH-41" value="更新RedisSwitch为false" style="rounded=0;whiteSpace=wrap;html=1;" parent="1" vertex="1">
          <mxGeometry y="960" width="200" height="60" as="geometry" />
        </mxCell>
        <mxCell id="Re3U-acYbqD1VZvPbJbH-48" value="是" style="text;html=1;strokeColor=none;fillColor=none;align=center;verticalAlign=middle;whiteSpace=wrap;rounded=0;" parent="1" vertex="1">
          <mxGeometry x="100" y="920" width="40" height="20" as="geometry" />
        </mxCell>
        <mxCell id="Re3U-acYbqD1VZvPbJbH-60" style="edgeStyle=orthogonalEdgeStyle;rounded=0;orthogonalLoop=1;jettySize=auto;html=1;entryX=0;entryY=0.5;entryDx=0;entryDy=0;" parent="1" source="Re3U-acYbqD1VZvPbJbH-50" target="Re3U-acYbqD1VZvPbJbH-53" edge="1">
          <mxGeometry relative="1" as="geometry" />
        </mxCell>
        <mxCell id="Re3U-acYbqD1VZvPbJbH-50" value="更新RedisSwitch为true" style="rounded=0;whiteSpace=wrap;html=1;" parent="1" vertex="1">
          <mxGeometry x="-240" y="830" width="200" height="60" as="geometry" />
        </mxCell>
        <mxCell id="Re3U-acYbqD1VZvPbJbH-52" value="否" style="text;html=1;strokeColor=none;fillColor=none;align=center;verticalAlign=middle;whiteSpace=wrap;rounded=0;" parent="1" vertex="1">
          <mxGeometry x="-20" y="840" width="40" height="20" as="geometry" />
        </mxCell>
        <mxCell id="Re3U-acYbqD1VZvPbJbH-53" value="RedisSwitch" style="shape=dataStorage;whiteSpace=wrap;html=1;fixedSize=1;" parent="1" vertex="1">
          <mxGeometry x="-50" y="1202.5" width="120" height="85" as="geometry" />
        </mxCell>
        <mxCell id="Re3U-acYbqD1VZvPbJbH-62" value="false" style="text;html=1;strokeColor=none;fillColor=none;align=center;verticalAlign=middle;whiteSpace=wrap;rounded=0;" parent="1" vertex="1">
          <mxGeometry x="560" y="1400" width="40" height="20" as="geometry" />
        </mxCell>
        <mxCell id="Re3U-acYbqD1VZvPbJbH-64" value="true" style="text;html=1;strokeColor=none;fillColor=none;align=center;verticalAlign=middle;whiteSpace=wrap;rounded=0;" parent="1" vertex="1">
          <mxGeometry x="430" y="1500" width="40" height="20" as="geometry" />
        </mxCell>
        <mxCell id="dDAZ2-Sq7wZqyejduBsv-12" style="edgeStyle=orthogonalEdgeStyle;rounded=0;orthogonalLoop=1;jettySize=auto;html=1;entryX=1;entryY=0.5;entryDx=0;entryDy=0;entryPerimeter=0;" edge="1" parent="1" source="dDAZ2-Sq7wZqyejduBsv-1" target="Re3U-acYbqD1VZvPbJbH-31">
          <mxGeometry relative="1" as="geometry" />
        </mxCell>
        <mxCell id="dDAZ2-Sq7wZqyejduBsv-1" value="从redis队列中取出数据" style="rounded=0;whiteSpace=wrap;html=1;" vertex="1" parent="1">
          <mxGeometry x="520" y="1720" width="200" height="60" as="geometry" />
        </mxCell>
        <mxCell id="dDAZ2-Sq7wZqyejduBsv-10" style="edgeStyle=orthogonalEdgeStyle;rounded=0;orthogonalLoop=1;jettySize=auto;html=1;entryX=0.5;entryY=1;entryDx=0;entryDy=0;entryPerimeter=0;" edge="1" parent="1" source="dDAZ2-Sq7wZqyejduBsv-2" target="Re3U-acYbqD1VZvPbJbH-31">
          <mxGeometry relative="1" as="geometry" />
        </mxCell>
        <mxCell id="dDAZ2-Sq7wZqyejduBsv-2" value="从redis队列中取出数据" style="rounded=0;whiteSpace=wrap;html=1;" vertex="1" parent="1">
          <mxGeometry x="240" y="1720" width="200" height="60" as="geometry" />
        </mxCell>
        <mxCell id="dDAZ2-Sq7wZqyejduBsv-9" style="edgeStyle=orthogonalEdgeStyle;rounded=0;orthogonalLoop=1;jettySize=auto;html=1;" edge="1" parent="1" source="dDAZ2-Sq7wZqyejduBsv-3" target="Re3U-acYbqD1VZvPbJbH-31">
          <mxGeometry relative="1" as="geometry">
            <Array as="points">
              <mxPoint x="60" y="1595" />
            </Array>
          </mxGeometry>
        </mxCell>
        <mxCell id="dDAZ2-Sq7wZqyejduBsv-3" value="从redis队列中取出数据" style="rounded=0;whiteSpace=wrap;html=1;" vertex="1" parent="1">
          <mxGeometry x="-40" y="1720" width="200" height="60" as="geometry" />
        </mxCell>
        <mxCell id="dDAZ2-Sq7wZqyejduBsv-13" style="edgeStyle=orthogonalEdgeStyle;rounded=0;orthogonalLoop=1;jettySize=auto;html=1;" edge="1" parent="1" source="dDAZ2-Sq7wZqyejduBsv-4" target="Re3U-acYbqD1VZvPbJbH-31">
          <mxGeometry relative="1" as="geometry">
            <Array as="points">
              <mxPoint x="900" y="1610" />
            </Array>
          </mxGeometry>
        </mxCell>
        <mxCell id="dDAZ2-Sq7wZqyejduBsv-4" value="从redis队列中取出数据" style="rounded=0;whiteSpace=wrap;html=1;" vertex="1" parent="1">
          <mxGeometry x="800" y="1720" width="200" height="60" as="geometry" />
        </mxCell>
        <mxCell id="dDAZ2-Sq7wZqyejduBsv-51" style="edgeStyle=orthogonalEdgeStyle;rounded=0;orthogonalLoop=1;jettySize=auto;html=1;entryX=0.5;entryY=0;entryDx=0;entryDy=0;" edge="1" parent="1" source="dDAZ2-Sq7wZqyejduBsv-14" target="dDAZ2-Sq7wZqyejduBsv-38">
          <mxGeometry relative="1" as="geometry" />
        </mxCell>
        <mxCell id="dDAZ2-Sq7wZqyejduBsv-14" value="truncate线程" style="text;html=1;strokeColor=none;fillColor=none;align=center;verticalAlign=middle;whiteSpace=wrap;rounded=0;" vertex="1" parent="1">
          <mxGeometry x="20" y="1790" width="80" height="20" as="geometry" />
        </mxCell>
        <mxCell id="dDAZ2-Sq7wZqyejduBsv-53" style="edgeStyle=orthogonalEdgeStyle;rounded=0;orthogonalLoop=1;jettySize=auto;html=1;entryX=0.45;entryY=0;entryDx=0;entryDy=0;entryPerimeter=0;" edge="1" parent="1" source="dDAZ2-Sq7wZqyejduBsv-15" target="dDAZ2-Sq7wZqyejduBsv-37">
          <mxGeometry relative="1" as="geometry">
            <mxPoint x="330" y="1850" as="targetPoint" />
          </mxGeometry>
        </mxCell>
        <mxCell id="dDAZ2-Sq7wZqyejduBsv-15" value="hotSpot线程" style="text;html=1;strokeColor=none;fillColor=none;align=center;verticalAlign=middle;whiteSpace=wrap;rounded=0;" vertex="1" parent="1">
          <mxGeometry x="290" y="1790" width="80" height="20" as="geometry" />
        </mxCell>
        <mxCell id="dDAZ2-Sq7wZqyejduBsv-54" value="" style="edgeStyle=orthogonalEdgeStyle;rounded=0;orthogonalLoop=1;jettySize=auto;html=1;" edge="1" parent="1" source="dDAZ2-Sq7wZqyejduBsv-16" target="dDAZ2-Sq7wZqyejduBsv-36">
          <mxGeometry relative="1" as="geometry" />
        </mxCell>
        <mxCell id="dDAZ2-Sq7wZqyejduBsv-16" value="cec线程" style="text;html=1;strokeColor=none;fillColor=none;align=center;verticalAlign=middle;whiteSpace=wrap;rounded=0;" vertex="1" parent="1">
          <mxGeometry x="580" y="1790" width="80" height="20" as="geometry" />
        </mxCell>
        <mxCell id="dDAZ2-Sq7wZqyejduBsv-55" value="" style="edgeStyle=orthogonalEdgeStyle;rounded=0;orthogonalLoop=1;jettySize=auto;html=1;" edge="1" parent="1" source="dDAZ2-Sq7wZqyejduBsv-17" target="dDAZ2-Sq7wZqyejduBsv-39">
          <mxGeometry relative="1" as="geometry" />
        </mxCell>
        <mxCell id="dDAZ2-Sq7wZqyejduBsv-17" value="other线程" style="text;html=1;strokeColor=none;fillColor=none;align=center;verticalAlign=middle;whiteSpace=wrap;rounded=0;" vertex="1" parent="1">
          <mxGeometry x="860" y="1790" width="80" height="20" as="geometry" />
        </mxCell>
        <mxCell id="dDAZ2-Sq7wZqyejduBsv-21" style="edgeStyle=orthogonalEdgeStyle;rounded=0;orthogonalLoop=1;jettySize=auto;html=1;entryX=0;entryY=0.5;entryDx=0;entryDy=0;entryPerimeter=0;" edge="1" parent="1" source="dDAZ2-Sq7wZqyejduBsv-18" target="Re3U-acYbqD1VZvPbJbH-27">
          <mxGeometry relative="1" as="geometry" />
        </mxCell>
        <mxCell id="dDAZ2-Sq7wZqyejduBsv-23" style="edgeStyle=orthogonalEdgeStyle;rounded=0;orthogonalLoop=1;jettySize=auto;html=1;entryX=0.453;entryY=-0.017;entryDx=0;entryDy=0;entryPerimeter=0;" edge="1" parent="1" source="dDAZ2-Sq7wZqyejduBsv-18">
          <mxGeometry relative="1" as="geometry">
            <mxPoint x="740.5999999999999" y="1078.98" as="targetPoint" />
          </mxGeometry>
        </mxCell>
        <mxCell id="dDAZ2-Sq7wZqyejduBsv-18" value="定时任务去数据库查询不需要订阅的表数据，然后更新Map" style="rounded=0;whiteSpace=wrap;html=1;" vertex="1" parent="1">
          <mxGeometry x="640" y="750" width="200" height="60" as="geometry" />
        </mxCell>
        <mxCell id="dDAZ2-Sq7wZqyejduBsv-26" value="&lt;span&gt;Map（表名----对列名）&lt;/span&gt;&lt;br&gt;&lt;span&gt;Map（不需要订阅的表）&lt;/span&gt;" style="shape=dataStorage;whiteSpace=wrap;html=1;fixedSize=1;" vertex="1" parent="1">
          <mxGeometry x="660" y="1080" width="170" height="70" as="geometry" />
        </mxCell>
        <mxCell id="dDAZ2-Sq7wZqyejduBsv-123" style="edgeStyle=orthogonalEdgeStyle;rounded=0;orthogonalLoop=1;jettySize=auto;html=1;" edge="1" parent="1" source="dDAZ2-Sq7wZqyejduBsv-27" target="dDAZ2-Sq7wZqyejduBsv-115">
          <mxGeometry relative="1" as="geometry" />
        </mxCell>
        <mxCell id="dDAZ2-Sq7wZqyejduBsv-27" value="同步调用" style="rounded=0;whiteSpace=wrap;html=1;" vertex="1" parent="1">
          <mxGeometry x="-20" y="2380" width="200" height="60" as="geometry" />
        </mxCell>
        <mxCell id="dDAZ2-Sq7wZqyejduBsv-28" value="异步调用" style="rounded=0;whiteSpace=wrap;html=1;" vertex="1" parent="1">
          <mxGeometry x="260" y="2380" width="200" height="60" as="geometry" />
        </mxCell>
        <mxCell id="dDAZ2-Sq7wZqyejduBsv-29" value="异步调用" style="rounded=0;whiteSpace=wrap;html=1;" vertex="1" parent="1">
          <mxGeometry x="540" y="2380" width="200" height="60" as="geometry" />
        </mxCell>
        <mxCell id="dDAZ2-Sq7wZqyejduBsv-30" value="异步调用" style="rounded=0;whiteSpace=wrap;html=1;" vertex="1" parent="1">
          <mxGeometry x="820" y="2380" width="200" height="60" as="geometry" />
        </mxCell>
        <mxCell id="dDAZ2-Sq7wZqyejduBsv-91" style="edgeStyle=orthogonalEdgeStyle;rounded=0;orthogonalLoop=1;jettySize=auto;html=1;entryX=0.5;entryY=0;entryDx=0;entryDy=0;" edge="1" parent="1" source="dDAZ2-Sq7wZqyejduBsv-31" target="dDAZ2-Sq7wZqyejduBsv-86">
          <mxGeometry relative="1" as="geometry" />
        </mxCell>
        <mxCell id="dDAZ2-Sq7wZqyejduBsv-31" value="sendTruncate" style="text;html=1;strokeColor=none;fillColor=none;align=center;verticalAlign=middle;whiteSpace=wrap;rounded=0;" vertex="1" parent="1">
          <mxGeometry x="40" y="2450" width="60" height="20" as="geometry" />
        </mxCell>
        <mxCell id="dDAZ2-Sq7wZqyejduBsv-95" style="edgeStyle=orthogonalEdgeStyle;rounded=0;orthogonalLoop=1;jettySize=auto;html=1;entryX=0.5;entryY=0;entryDx=0;entryDy=0;" edge="1" parent="1" source="dDAZ2-Sq7wZqyejduBsv-33" target="dDAZ2-Sq7wZqyejduBsv-89">
          <mxGeometry relative="1" as="geometry">
            <Array as="points">
              <mxPoint x="915" y="2510" />
              <mxPoint x="915" y="2510" />
            </Array>
          </mxGeometry>
        </mxCell>
        <mxCell id="dDAZ2-Sq7wZqyejduBsv-33" value="sendOther" style="text;html=1;strokeColor=none;fillColor=none;align=center;verticalAlign=middle;whiteSpace=wrap;rounded=0;" vertex="1" parent="1">
          <mxGeometry x="900" y="2450" width="60" height="20" as="geometry" />
        </mxCell>
        <mxCell id="dDAZ2-Sq7wZqyejduBsv-93" style="edgeStyle=orthogonalEdgeStyle;rounded=0;orthogonalLoop=1;jettySize=auto;html=1;" edge="1" parent="1" source="dDAZ2-Sq7wZqyejduBsv-34" target="dDAZ2-Sq7wZqyejduBsv-88">
          <mxGeometry relative="1" as="geometry">
            <Array as="points">
              <mxPoint x="635" y="2520" />
              <mxPoint x="635" y="2520" />
            </Array>
          </mxGeometry>
        </mxCell>
        <mxCell id="dDAZ2-Sq7wZqyejduBsv-34" value="sendCec" style="text;html=1;strokeColor=none;fillColor=none;align=center;verticalAlign=middle;whiteSpace=wrap;rounded=0;" vertex="1" parent="1">
          <mxGeometry x="620" y="2450" width="60" height="20" as="geometry" />
        </mxCell>
        <mxCell id="dDAZ2-Sq7wZqyejduBsv-92" style="edgeStyle=orthogonalEdgeStyle;rounded=0;orthogonalLoop=1;jettySize=auto;html=1;entryX=0.464;entryY=-0.017;entryDx=0;entryDy=0;entryPerimeter=0;" edge="1" parent="1" source="dDAZ2-Sq7wZqyejduBsv-35" target="dDAZ2-Sq7wZqyejduBsv-87">
          <mxGeometry relative="1" as="geometry">
            <Array as="points">
              <mxPoint x="343" y="2490" />
              <mxPoint x="343" y="2490" />
            </Array>
          </mxGeometry>
        </mxCell>
        <mxCell id="dDAZ2-Sq7wZqyejduBsv-35" value="sendHotSpot" style="text;html=1;strokeColor=none;fillColor=none;align=center;verticalAlign=middle;whiteSpace=wrap;rounded=0;" vertex="1" parent="1">
          <mxGeometry x="320" y="2450" width="60" height="20" as="geometry" />
        </mxCell>
        <mxCell id="dDAZ2-Sq7wZqyejduBsv-59" style="edgeStyle=orthogonalEdgeStyle;rounded=0;orthogonalLoop=1;jettySize=auto;html=1;exitX=0.5;exitY=1;exitDx=0;exitDy=0;entryX=0;entryY=0.5;entryDx=0;entryDy=0;" edge="1" parent="1" source="dDAZ2-Sq7wZqyejduBsv-36" target="dDAZ2-Sq7wZqyejduBsv-56">
          <mxGeometry relative="1" as="geometry" />
        </mxCell>
        <mxCell id="dDAZ2-Sq7wZqyejduBsv-67" style="edgeStyle=orthogonalEdgeStyle;rounded=0;orthogonalLoop=1;jettySize=auto;html=1;entryX=0.5;entryY=0;entryDx=0;entryDy=0;" edge="1" parent="1" source="dDAZ2-Sq7wZqyejduBsv-36" target="dDAZ2-Sq7wZqyejduBsv-63">
          <mxGeometry relative="1" as="geometry" />
        </mxCell>
        <mxCell id="dDAZ2-Sq7wZqyejduBsv-36" value="组装数据，10条发送一次" style="rounded=0;whiteSpace=wrap;html=1;" vertex="1" parent="1">
          <mxGeometry x="520" y="1860" width="200" height="60" as="geometry" />
        </mxCell>
        <mxCell id="dDAZ2-Sq7wZqyejduBsv-58" style="edgeStyle=orthogonalEdgeStyle;rounded=0;orthogonalLoop=1;jettySize=auto;html=1;exitX=0.5;exitY=1;exitDx=0;exitDy=0;" edge="1" parent="1" source="dDAZ2-Sq7wZqyejduBsv-37">
          <mxGeometry relative="1" as="geometry">
            <mxPoint x="1120" y="2010" as="targetPoint" />
            <Array as="points">
              <mxPoint x="340" y="2010" />
            </Array>
          </mxGeometry>
        </mxCell>
        <mxCell id="dDAZ2-Sq7wZqyejduBsv-66" style="edgeStyle=orthogonalEdgeStyle;rounded=0;orthogonalLoop=1;jettySize=auto;html=1;entryX=0.5;entryY=0;entryDx=0;entryDy=0;" edge="1" parent="1" source="dDAZ2-Sq7wZqyejduBsv-37" target="dDAZ2-Sq7wZqyejduBsv-62">
          <mxGeometry relative="1" as="geometry" />
        </mxCell>
        <mxCell id="dDAZ2-Sq7wZqyejduBsv-37" value="组装数据，10条发送一次" style="rounded=0;whiteSpace=wrap;html=1;" vertex="1" parent="1">
          <mxGeometry x="240" y="1860" width="200" height="60" as="geometry" />
        </mxCell>
        <mxCell id="dDAZ2-Sq7wZqyejduBsv-57" style="edgeStyle=orthogonalEdgeStyle;rounded=0;orthogonalLoop=1;jettySize=auto;html=1;entryX=0;entryY=0.5;entryDx=0;entryDy=0;" edge="1" parent="1" source="dDAZ2-Sq7wZqyejduBsv-38" target="dDAZ2-Sq7wZqyejduBsv-56">
          <mxGeometry relative="1" as="geometry">
            <Array as="points">
              <mxPoint x="60" y="2010" />
            </Array>
          </mxGeometry>
        </mxCell>
        <mxCell id="dDAZ2-Sq7wZqyejduBsv-65" style="edgeStyle=orthogonalEdgeStyle;rounded=0;orthogonalLoop=1;jettySize=auto;html=1;entryX=0.5;entryY=0;entryDx=0;entryDy=0;" edge="1" parent="1" source="dDAZ2-Sq7wZqyejduBsv-38" target="dDAZ2-Sq7wZqyejduBsv-61">
          <mxGeometry relative="1" as="geometry" />
        </mxCell>
        <mxCell id="dDAZ2-Sq7wZqyejduBsv-38" value="组装数据，10条发送一次" style="rounded=0;whiteSpace=wrap;html=1;" vertex="1" parent="1">
          <mxGeometry x="-40" y="1860" width="200" height="60" as="geometry" />
        </mxCell>
        <mxCell id="dDAZ2-Sq7wZqyejduBsv-60" style="edgeStyle=orthogonalEdgeStyle;rounded=0;orthogonalLoop=1;jettySize=auto;html=1;exitX=0.5;exitY=1;exitDx=0;exitDy=0;" edge="1" parent="1" source="dDAZ2-Sq7wZqyejduBsv-39">
          <mxGeometry relative="1" as="geometry">
            <mxPoint x="1120" y="2010" as="targetPoint" />
            <Array as="points">
              <mxPoint x="900" y="2010" />
            </Array>
          </mxGeometry>
        </mxCell>
        <mxCell id="dDAZ2-Sq7wZqyejduBsv-68" style="edgeStyle=orthogonalEdgeStyle;rounded=0;orthogonalLoop=1;jettySize=auto;html=1;entryX=0.5;entryY=0;entryDx=0;entryDy=0;" edge="1" parent="1" source="dDAZ2-Sq7wZqyejduBsv-39" target="dDAZ2-Sq7wZqyejduBsv-64">
          <mxGeometry relative="1" as="geometry" />
        </mxCell>
        <mxCell id="dDAZ2-Sq7wZqyejduBsv-39" value="组装数据，10条发送一次" style="rounded=0;whiteSpace=wrap;html=1;" vertex="1" parent="1">
          <mxGeometry x="800" y="1860" width="200" height="60" as="geometry" />
        </mxCell>
        <mxCell id="dDAZ2-Sq7wZqyejduBsv-40" value="dts配置数据" style="shape=cylinder3;whiteSpace=wrap;html=1;boundedLbl=1;backgroundOutline=1;size=15;" vertex="1" parent="1">
          <mxGeometry x="940" y="190" width="80" height="80" as="geometry" />
        </mxCell>
        <mxCell id="dDAZ2-Sq7wZqyejduBsv-42" value="从数据库读取配置信息" style="text;html=1;strokeColor=none;fillColor=none;align=center;verticalAlign=middle;whiteSpace=wrap;rounded=0;" vertex="1" parent="1">
          <mxGeometry x="640" y="200" width="130" height="20" as="geometry" />
        </mxCell>
        <mxCell id="dDAZ2-Sq7wZqyejduBsv-43" value="消费位点" style="shape=dataStorage;whiteSpace=wrap;html=1;fixedSize=1;" vertex="1" parent="1">
          <mxGeometry x="655" y="360" width="100" height="80" as="geometry" />
        </mxCell>
        <mxCell id="dDAZ2-Sq7wZqyejduBsv-45" value="" style="endArrow=classic;html=1;" edge="1" parent="1">
          <mxGeometry width="50" height="50" relative="1" as="geometry">
            <mxPoint x="420" y="400" as="sourcePoint" />
            <mxPoint x="655" y="400" as="targetPoint" />
          </mxGeometry>
        </mxCell>
        <mxCell id="dDAZ2-Sq7wZqyejduBsv-46" value="放入本地kafka成功后更新内存消费位点" style="text;html=1;strokeColor=none;fillColor=none;align=center;verticalAlign=middle;whiteSpace=wrap;rounded=0;" vertex="1" parent="1">
          <mxGeometry x="505" y="410" width="125" height="20" as="geometry" />
        </mxCell>
        <mxCell id="dDAZ2-Sq7wZqyejduBsv-49" style="edgeStyle=orthogonalEdgeStyle;rounded=0;orthogonalLoop=1;jettySize=auto;html=1;exitX=0.5;exitY=0;exitDx=0;exitDy=0;entryX=0.5;entryY=1;entryDx=0;entryDy=0;entryPerimeter=0;" edge="1" parent="1" source="dDAZ2-Sq7wZqyejduBsv-47" target="dDAZ2-Sq7wZqyejduBsv-40">
          <mxGeometry relative="1" as="geometry" />
        </mxCell>
        <mxCell id="dDAZ2-Sq7wZqyejduBsv-50" style="edgeStyle=orthogonalEdgeStyle;rounded=0;orthogonalLoop=1;jettySize=auto;html=1;entryX=1;entryY=0.5;entryDx=0;entryDy=0;" edge="1" parent="1" source="dDAZ2-Sq7wZqyejduBsv-47" target="dDAZ2-Sq7wZqyejduBsv-43">
          <mxGeometry relative="1" as="geometry" />
        </mxCell>
        <mxCell id="dDAZ2-Sq7wZqyejduBsv-47" value="定时任务将消费位点更新至数据库" style="rounded=0;whiteSpace=wrap;html=1;" vertex="1" parent="1">
          <mxGeometry x="880" y="370" width="200" height="60" as="geometry" />
        </mxCell>
        <mxCell id="dDAZ2-Sq7wZqyejduBsv-56" value="sendStatus" style="shape=dataStorage;whiteSpace=wrap;html=1;fixedSize=1;" vertex="1" parent="1">
          <mxGeometry x="1120" y="1970" width="120" height="80" as="geometry" />
        </mxCell>
        <mxCell id="dDAZ2-Sq7wZqyejduBsv-69" style="edgeStyle=orthogonalEdgeStyle;rounded=0;orthogonalLoop=1;jettySize=auto;html=1;entryX=0.399;entryY=-0.03;entryDx=0;entryDy=0;entryPerimeter=0;" edge="1" parent="1" source="dDAZ2-Sq7wZqyejduBsv-61" target="dDAZ2-Sq7wZqyejduBsv-27">
          <mxGeometry relative="1" as="geometry" />
        </mxCell>
        <mxCell id="dDAZ2-Sq7wZqyejduBsv-79" style="edgeStyle=orthogonalEdgeStyle;rounded=0;orthogonalLoop=1;jettySize=auto;html=1;entryX=0;entryY=0.5;entryDx=0;entryDy=0;" edge="1" parent="1" source="dDAZ2-Sq7wZqyejduBsv-61" target="dDAZ2-Sq7wZqyejduBsv-77">
          <mxGeometry relative="1" as="geometry" />
        </mxCell>
        <mxCell id="dDAZ2-Sq7wZqyejduBsv-61" value="是否可以发送" style="rhombus;whiteSpace=wrap;html=1;" vertex="1" parent="1">
          <mxGeometry x="20" y="2120" width="80" height="80" as="geometry" />
        </mxCell>
        <mxCell id="dDAZ2-Sq7wZqyejduBsv-129" style="edgeStyle=orthogonalEdgeStyle;rounded=0;orthogonalLoop=1;jettySize=auto;html=1;" edge="1" parent="1" source="dDAZ2-Sq7wZqyejduBsv-62">
          <mxGeometry relative="1" as="geometry">
            <mxPoint x="340" y="2370" as="targetPoint" />
          </mxGeometry>
        </mxCell>
        <mxCell id="dDAZ2-Sq7wZqyejduBsv-62" value="是否可以发送" style="rhombus;whiteSpace=wrap;html=1;" vertex="1" parent="1">
          <mxGeometry x="300" y="2120" width="80" height="80" as="geometry" />
        </mxCell>
        <mxCell id="dDAZ2-Sq7wZqyejduBsv-130" style="edgeStyle=orthogonalEdgeStyle;rounded=0;orthogonalLoop=1;jettySize=auto;html=1;" edge="1" parent="1" source="dDAZ2-Sq7wZqyejduBsv-63">
          <mxGeometry relative="1" as="geometry">
            <mxPoint x="620" y="2370" as="targetPoint" />
          </mxGeometry>
        </mxCell>
        <mxCell id="dDAZ2-Sq7wZqyejduBsv-63" value="是否可以发送" style="rhombus;whiteSpace=wrap;html=1;" vertex="1" parent="1">
          <mxGeometry x="580" y="2120" width="80" height="80" as="geometry" />
        </mxCell>
        <mxCell id="dDAZ2-Sq7wZqyejduBsv-131" style="edgeStyle=orthogonalEdgeStyle;rounded=0;orthogonalLoop=1;jettySize=auto;html=1;" edge="1" parent="1" source="dDAZ2-Sq7wZqyejduBsv-64">
          <mxGeometry relative="1" as="geometry">
            <mxPoint x="900" y="2370" as="targetPoint" />
          </mxGeometry>
        </mxCell>
        <mxCell id="dDAZ2-Sq7wZqyejduBsv-64" value="是否可以发送" style="rhombus;whiteSpace=wrap;html=1;" vertex="1" parent="1">
          <mxGeometry x="860" y="2120" width="80" height="80" as="geometry" />
        </mxCell>
        <mxCell id="dDAZ2-Sq7wZqyejduBsv-73" value="是" style="text;html=1;strokeColor=none;fillColor=none;align=center;verticalAlign=middle;whiteSpace=wrap;rounded=0;" vertex="1" parent="1">
          <mxGeometry x="570" y="2280" width="40" height="20" as="geometry" />
        </mxCell>
        <mxCell id="dDAZ2-Sq7wZqyejduBsv-74" value="是" style="text;html=1;strokeColor=none;fillColor=none;align=center;verticalAlign=middle;whiteSpace=wrap;rounded=0;" vertex="1" parent="1">
          <mxGeometry x="10" y="2280" width="40" height="20" as="geometry" />
        </mxCell>
        <mxCell id="dDAZ2-Sq7wZqyejduBsv-75" value="是" style="text;html=1;strokeColor=none;fillColor=none;align=center;verticalAlign=middle;whiteSpace=wrap;rounded=0;" vertex="1" parent="1">
          <mxGeometry x="310" y="2280" width="40" height="20" as="geometry" />
        </mxCell>
        <mxCell id="dDAZ2-Sq7wZqyejduBsv-76" value="是" style="text;html=1;strokeColor=none;fillColor=none;align=center;verticalAlign=middle;whiteSpace=wrap;rounded=0;" vertex="1" parent="1">
          <mxGeometry x="850" y="2280" width="40" height="20" as="geometry" />
        </mxCell>
        <mxCell id="dDAZ2-Sq7wZqyejduBsv-77" value="睡一会" style="rounded=0;whiteSpace=wrap;html=1;" vertex="1" parent="1">
          <mxGeometry x="1170" y="2130" width="200" height="60" as="geometry" />
        </mxCell>
        <mxCell id="dDAZ2-Sq7wZqyejduBsv-80" value="否" style="text;html=1;strokeColor=none;fillColor=none;align=center;verticalAlign=middle;whiteSpace=wrap;rounded=0;" vertex="1" parent="1">
          <mxGeometry x="450" y="2130" width="40" height="20" as="geometry" />
        </mxCell>
        <mxCell id="dDAZ2-Sq7wZqyejduBsv-82" value="获取发送状态" style="text;html=1;strokeColor=none;fillColor=none;align=center;verticalAlign=middle;whiteSpace=wrap;rounded=0;" vertex="1" parent="1">
          <mxGeometry x="450" y="1990" width="90" height="10" as="geometry" />
        </mxCell>
        <mxCell id="dDAZ2-Sq7wZqyejduBsv-84" style="edgeStyle=orthogonalEdgeStyle;rounded=0;orthogonalLoop=1;jettySize=auto;html=1;entryX=1;entryY=0.25;entryDx=0;entryDy=0;" edge="1" parent="1" source="dDAZ2-Sq7wZqyejduBsv-83" target="dDAZ2-Sq7wZqyejduBsv-56">
          <mxGeometry relative="1" as="geometry">
            <Array as="points">
              <mxPoint x="1560" y="2410" />
              <mxPoint x="1560" y="1990" />
            </Array>
          </mxGeometry>
        </mxCell>
        <mxCell id="dDAZ2-Sq7wZqyejduBsv-83" value="任意一个线程远程调用异常，则修改发送状态为false并重试" style="rounded=0;whiteSpace=wrap;html=1;" vertex="1" parent="1">
          <mxGeometry x="1250" y="2250" width="200" height="60" as="geometry" />
        </mxCell>
        <mxCell id="dDAZ2-Sq7wZqyejduBsv-104" style="edgeStyle=orthogonalEdgeStyle;rounded=0;orthogonalLoop=1;jettySize=auto;html=1;" edge="1" parent="1" source="dDAZ2-Sq7wZqyejduBsv-86">
          <mxGeometry relative="1" as="geometry">
            <mxPoint x="440" y="2840" as="targetPoint" />
            <Array as="points">
              <mxPoint x="70" y="2770" />
              <mxPoint x="440" y="2770" />
            </Array>
          </mxGeometry>
        </mxCell>
        <mxCell id="dDAZ2-Sq7wZqyejduBsv-86" value="truncateController" style="rounded=0;whiteSpace=wrap;html=1;" vertex="1" parent="1">
          <mxGeometry x="-30" y="2640" width="200" height="60" as="geometry" />
        </mxCell>
        <mxCell id="dDAZ2-Sq7wZqyejduBsv-105" style="edgeStyle=orthogonalEdgeStyle;rounded=0;orthogonalLoop=1;jettySize=auto;html=1;" edge="1" parent="1" source="dDAZ2-Sq7wZqyejduBsv-87">
          <mxGeometry relative="1" as="geometry">
            <mxPoint x="440" y="2840" as="targetPoint" />
          </mxGeometry>
        </mxCell>
        <mxCell id="dDAZ2-Sq7wZqyejduBsv-87" value="hotSpotController" style="rounded=0;whiteSpace=wrap;html=1;" vertex="1" parent="1">
          <mxGeometry x="250" y="2640" width="200" height="60" as="geometry" />
        </mxCell>
        <mxCell id="dDAZ2-Sq7wZqyejduBsv-106" style="edgeStyle=orthogonalEdgeStyle;rounded=0;orthogonalLoop=1;jettySize=auto;html=1;" edge="1" parent="1" source="dDAZ2-Sq7wZqyejduBsv-88">
          <mxGeometry relative="1" as="geometry">
            <mxPoint x="440" y="2840" as="targetPoint" />
            <Array as="points">
              <mxPoint x="635" y="2770" />
              <mxPoint x="440" y="2770" />
            </Array>
          </mxGeometry>
        </mxCell>
        <mxCell id="dDAZ2-Sq7wZqyejduBsv-88" value="cecController" style="rounded=0;whiteSpace=wrap;html=1;" vertex="1" parent="1">
          <mxGeometry x="535" y="2640" width="200" height="60" as="geometry" />
        </mxCell>
        <mxCell id="dDAZ2-Sq7wZqyejduBsv-107" style="edgeStyle=orthogonalEdgeStyle;rounded=0;orthogonalLoop=1;jettySize=auto;html=1;" edge="1" parent="1" source="dDAZ2-Sq7wZqyejduBsv-89">
          <mxGeometry relative="1" as="geometry">
            <mxPoint x="440" y="2830" as="targetPoint" />
            <Array as="points">
              <mxPoint x="915" y="2770" />
              <mxPoint x="440" y="2770" />
            </Array>
          </mxGeometry>
        </mxCell>
        <mxCell id="dDAZ2-Sq7wZqyejduBsv-89" value="otherController" style="rounded=0;whiteSpace=wrap;html=1;" vertex="1" parent="1">
          <mxGeometry x="815" y="2640" width="200" height="60" as="geometry" />
        </mxCell>
        <mxCell id="dDAZ2-Sq7wZqyejduBsv-90" value="" style="endArrow=none;dashed=1;html=1;dashPattern=1 3;strokeWidth=2;" edge="1" parent="1">
          <mxGeometry width="50" height="50" relative="1" as="geometry">
            <mxPoint y="2560" as="sourcePoint" />
            <mxPoint x="1080" y="2560" as="targetPoint" />
            <Array as="points" />
          </mxGeometry>
        </mxCell>
        <mxCell id="dDAZ2-Sq7wZqyejduBsv-96" value="webClient" style="text;html=1;strokeColor=none;fillColor=none;align=center;verticalAlign=middle;whiteSpace=wrap;rounded=0;" vertex="1" parent="1">
          <mxGeometry x="450" y="2530" width="40" height="20" as="geometry" />
        </mxCell>
        <mxCell id="dDAZ2-Sq7wZqyejduBsv-100" style="edgeStyle=orthogonalEdgeStyle;rounded=0;orthogonalLoop=1;jettySize=auto;html=1;entryX=0.5;entryY=0;entryDx=0;entryDy=0;" edge="1" parent="1" source="dDAZ2-Sq7wZqyejduBsv-97" target="dDAZ2-Sq7wZqyejduBsv-98">
          <mxGeometry relative="1" as="geometry" />
        </mxCell>
        <mxCell id="dDAZ2-Sq7wZqyejduBsv-101" style="edgeStyle=orthogonalEdgeStyle;rounded=0;orthogonalLoop=1;jettySize=auto;html=1;entryX=0;entryY=0.5;entryDx=0;entryDy=0;" edge="1" parent="1" source="dDAZ2-Sq7wZqyejduBsv-97" target="dDAZ2-Sq7wZqyejduBsv-99">
          <mxGeometry relative="1" as="geometry" />
        </mxCell>
        <mxCell id="dDAZ2-Sq7wZqyejduBsv-97" value="isDDL" style="rhombus;whiteSpace=wrap;html=1;" vertex="1" parent="1">
          <mxGeometry x="400" y="2843" width="80" height="80" as="geometry" />
        </mxCell>
        <mxCell id="dDAZ2-Sq7wZqyejduBsv-98" value="单条顺序执行" style="rounded=0;whiteSpace=wrap;html=1;" vertex="1" parent="1">
          <mxGeometry x="340" y="3060" width="200" height="60" as="geometry" />
        </mxCell>
        <mxCell id="dDAZ2-Sq7wZqyejduBsv-99" value="批量执行" style="rounded=0;whiteSpace=wrap;html=1;" vertex="1" parent="1">
          <mxGeometry x="840" y="2853" width="200" height="60" as="geometry" />
        </mxCell>
        <mxCell id="dDAZ2-Sq7wZqyejduBsv-102" value="是" style="text;html=1;strokeColor=none;fillColor=none;align=center;verticalAlign=middle;whiteSpace=wrap;rounded=0;" vertex="1" parent="1">
          <mxGeometry x="440" y="2950" width="40" height="50" as="geometry" />
        </mxCell>
        <mxCell id="dDAZ2-Sq7wZqyejduBsv-103" value="否" style="text;html=1;strokeColor=none;fillColor=none;align=center;verticalAlign=middle;whiteSpace=wrap;rounded=0;" vertex="1" parent="1">
          <mxGeometry x="620" y="2880" width="40" height="50" as="geometry" />
        </mxCell>
        <mxCell id="dDAZ2-Sq7wZqyejduBsv-119" style="edgeStyle=orthogonalEdgeStyle;rounded=0;orthogonalLoop=1;jettySize=auto;html=1;entryX=1;entryY=0.5;entryDx=0;entryDy=0;entryPerimeter=0;" edge="1" parent="1" source="dDAZ2-Sq7wZqyejduBsv-114" target="Re3U-acYbqD1VZvPbJbH-27">
          <mxGeometry relative="1" as="geometry">
            <Array as="points">
              <mxPoint x="1640" y="2540" />
              <mxPoint x="1640" y="780" />
            </Array>
          </mxGeometry>
        </mxCell>
        <mxCell id="dDAZ2-Sq7wZqyejduBsv-114" value="执行失败数据保存数据库" style="rounded=0;whiteSpace=wrap;html=1;" vertex="1" parent="1">
          <mxGeometry x="1350" y="2510" width="200" height="60" as="geometry" />
        </mxCell>
        <mxCell id="dDAZ2-Sq7wZqyejduBsv-116" style="edgeStyle=orthogonalEdgeStyle;rounded=0;orthogonalLoop=1;jettySize=auto;html=1;entryX=0;entryY=0.25;entryDx=0;entryDy=0;" edge="1" parent="1" source="dDAZ2-Sq7wZqyejduBsv-115" target="dDAZ2-Sq7wZqyejduBsv-83">
          <mxGeometry relative="1" as="geometry">
            <Array as="points">
              <mxPoint x="1160" y="2265" />
            </Array>
          </mxGeometry>
        </mxCell>
        <mxCell id="dDAZ2-Sq7wZqyejduBsv-122" style="edgeStyle=orthogonalEdgeStyle;rounded=0;orthogonalLoop=1;jettySize=auto;html=1;entryX=0.5;entryY=0;entryDx=0;entryDy=0;" edge="1" parent="1" source="dDAZ2-Sq7wZqyejduBsv-115" target="dDAZ2-Sq7wZqyejduBsv-118">
          <mxGeometry relative="1" as="geometry" />
        </mxCell>
        <mxCell id="dDAZ2-Sq7wZqyejduBsv-115" value="是否调通" style="rhombus;whiteSpace=wrap;html=1;" vertex="1" parent="1">
          <mxGeometry x="1120" y="2370" width="80" height="80" as="geometry" />
        </mxCell>
        <mxCell id="dDAZ2-Sq7wZqyejduBsv-117" value="否" style="text;html=1;strokeColor=none;fillColor=none;align=center;verticalAlign=middle;whiteSpace=wrap;rounded=0;" vertex="1" parent="1">
          <mxGeometry x="1110" y="2318" width="40" height="20" as="geometry" />
        </mxCell>
        <mxCell id="dDAZ2-Sq7wZqyejduBsv-120" style="edgeStyle=orthogonalEdgeStyle;rounded=0;orthogonalLoop=1;jettySize=auto;html=1;entryX=0;entryY=0.5;entryDx=0;entryDy=0;" edge="1" parent="1" source="dDAZ2-Sq7wZqyejduBsv-118" target="dDAZ2-Sq7wZqyejduBsv-114">
          <mxGeometry relative="1" as="geometry" />
        </mxCell>
        <mxCell id="dDAZ2-Sq7wZqyejduBsv-118" value="执行是否成功" style="rhombus;whiteSpace=wrap;html=1;" vertex="1" parent="1">
          <mxGeometry x="1120" y="2500" width="80" height="80" as="geometry" />
        </mxCell>
        <mxCell id="dDAZ2-Sq7wZqyejduBsv-121" value="否" style="text;html=1;strokeColor=none;fillColor=none;align=center;verticalAlign=middle;whiteSpace=wrap;rounded=0;" vertex="1" parent="1">
          <mxGeometry x="1241" y="2510" width="40" height="20" as="geometry" />
        </mxCell>
        <mxCell id="dDAZ2-Sq7wZqyejduBsv-124" value="" style="endArrow=classic;html=1;exitX=0.132;exitY=-0.03;exitDx=0;exitDy=0;exitPerimeter=0;entryX=0.107;entryY=1;entryDx=0;entryDy=0;entryPerimeter=0;" edge="1" parent="1" source="dDAZ2-Sq7wZqyejduBsv-88" target="dDAZ2-Sq7wZqyejduBsv-29">
          <mxGeometry width="50" height="50" relative="1" as="geometry">
            <mxPoint x="570" y="2530" as="sourcePoint" />
            <mxPoint x="620" y="2480" as="targetPoint" />
          </mxGeometry>
        </mxCell>
        <mxCell id="dDAZ2-Sq7wZqyejduBsv-125" value="" style="endArrow=classic;html=1;exitX=0.132;exitY=-0.03;exitDx=0;exitDy=0;exitPerimeter=0;entryX=0.107;entryY=1;entryDx=0;entryDy=0;entryPerimeter=0;" edge="1" parent="1">
          <mxGeometry width="50" height="50" relative="1" as="geometry">
            <mxPoint x="839.0000000000001" y="2639.1" as="sourcePoint" />
            <mxPoint x="839.0000000000001" y="2440.9" as="targetPoint" />
          </mxGeometry>
        </mxCell>
        <mxCell id="dDAZ2-Sq7wZqyejduBsv-126" value="" style="endArrow=classic;html=1;exitX=0.132;exitY=-0.03;exitDx=0;exitDy=0;exitPerimeter=0;entryX=0.107;entryY=1;entryDx=0;entryDy=0;entryPerimeter=0;" edge="1" parent="1">
          <mxGeometry width="50" height="50" relative="1" as="geometry">
            <mxPoint x="280.0000000000001" y="2638.2" as="sourcePoint" />
            <mxPoint x="280.0000000000001" y="2440" as="targetPoint" />
          </mxGeometry>
        </mxCell>
        <mxCell id="dDAZ2-Sq7wZqyejduBsv-127" value="" style="endArrow=classic;html=1;exitX=0.132;exitY=-0.03;exitDx=0;exitDy=0;exitPerimeter=0;entryX=0.107;entryY=1;entryDx=0;entryDy=0;entryPerimeter=0;" edge="1" parent="1">
          <mxGeometry width="50" height="50" relative="1" as="geometry">
            <mxPoint x="-0.9999999999998863" y="2638.2" as="sourcePoint" />
            <mxPoint x="-0.9999999999998863" y="2440" as="targetPoint" />
          </mxGeometry>
        </mxCell>
        <mxCell id="dDAZ2-Sq7wZqyejduBsv-132" value="" style="endArrow=none;dashed=1;html=1;dashPattern=1 3;strokeWidth=2;" edge="1" parent="1">
          <mxGeometry width="50" height="50" relative="1" as="geometry">
            <mxPoint x="-40" y="180" as="sourcePoint" />
            <mxPoint x="1160" y="180" as="targetPoint" />
          </mxGeometry>
        </mxCell>
        <mxCell id="dDAZ2-Sq7wZqyejduBsv-133" value="" style="endArrow=none;dashed=1;html=1;dashPattern=1 3;strokeWidth=2;" edge="1" parent="1">
          <mxGeometry width="50" height="50" relative="1" as="geometry">
            <mxPoint x="-50" y="680" as="sourcePoint" />
            <mxPoint x="1230" y="680" as="targetPoint" />
          </mxGeometry>
        </mxCell>
        <mxCell id="dDAZ2-Sq7wZqyejduBsv-134" value="&lt;font style=&quot;font-size: 24px&quot;&gt;&lt;b&gt;gov-dts-consumer&lt;/b&gt;&lt;/font&gt;" style="text;html=1;strokeColor=none;fillColor=none;align=center;verticalAlign=middle;whiteSpace=wrap;rounded=0;" vertex="1" parent="1">
          <mxGeometry x="-30" y="380" width="220" height="50" as="geometry" />
        </mxCell>
        <mxCell id="dDAZ2-Sq7wZqyejduBsv-135" value="&lt;font style=&quot;font-size: 24px&quot;&gt;&lt;b&gt;gov-dts-send&lt;/b&gt;&lt;/font&gt;" style="text;html=1;strokeColor=none;fillColor=none;align=center;verticalAlign=middle;whiteSpace=wrap;rounded=0;" vertex="1" parent="1">
          <mxGeometry x="-20" y="1410" width="220" height="50" as="geometry" />
        </mxCell>
        <mxCell id="dDAZ2-Sq7wZqyejduBsv-136" value="&lt;font style=&quot;font-size: 24px&quot;&gt;&lt;b&gt;gov-dts-receive&lt;/b&gt;&lt;/font&gt;" style="text;html=1;strokeColor=none;fillColor=none;align=center;verticalAlign=middle;whiteSpace=wrap;rounded=0;" vertex="1" parent="1">
          <mxGeometry x="-30" y="2880" width="220" height="50" as="geometry" />
        </mxCell>
      </root>
    </mxGraphModel>
  </diagram>
</mxfile>
